<svg width="80" height="80" viewBox="0 0 80 80" fill="none" xmlns="http://www.w3.org/2000/svg">
<path d="M59.3463 3.68366L59.3991 3.68147L59.4516 3.67556C65.5215 2.99298 70.6647 4.34165 74.0403 6.96314C77.3613 9.54208 79.092 13.4321 78.3166 18.2606L70.5268 62.3763L70.5143 62.4469L70.5087 62.5184C69.8402 70.9377 61.0309 76.5007 52.0795 75.9328L13.9628 71.2506L13.9582 71.2501C6.68602 70.3795 1.87129 63.9758 1.50105 58.1635L2.40817 18.5446L2.40857 18.5274V18.5103C2.40857 14.6909 3.8116 11.4569 6.21886 9.17284C8.63 6.88512 12.1431 5.46296 16.5057 5.46296H16.5368L16.568 5.46167L59.3463 3.68366Z" fill="white" stroke="#4365AF" stroke-width="3"/>
<path d="M41.1649 63V42.5068H48.0785L49.1061 34.483H41.1649V29.3722C41.1649 27.0568 41.81 25.4716 45.133 25.4716H49.3437V18.318C47.2949 18.0984 45.2356 17.9924 43.1752 18.0004C37.0642 18.0004 32.8686 21.731 32.8686 28.5796V34.468H26V42.4918H32.8836V63H41.1649Z" fill="#4365AF"/>
</svg>
