<svg width="80" height="80" viewBox="0 0 80 80" fill="none" xmlns="http://www.w3.org/2000/svg">
<path d="M59.3463 3.68366L59.3991 3.68147L59.4516 3.67556C65.5215 2.99298 70.6647 4.34165 74.0403 6.96314C77.3613 9.54208 79.092 13.4321 78.3166 18.2606L70.5268 62.3763L70.5143 62.4469L70.5087 62.5184C69.8402 70.9377 61.0309 76.5007 52.0795 75.9328L13.9628 71.2506L13.9582 71.2501C6.68602 70.3795 1.87129 63.9758 1.50105 58.1635L2.40817 18.5446L2.40857 18.5274V18.5103C2.40857 14.6909 3.8116 11.4569 6.21886 9.17284C8.63 6.88512 12.1431 5.46296 16.5057 5.46296H16.5368L16.568 5.46167L59.3463 3.68366Z" fill="white" stroke="#FF0000" stroke-width="3"/>
<path d="M59.0577 29.7093C58.803 28.8005 58.3067 27.9777 57.6217 27.3284C56.9173 26.6591 56.054 26.1803 55.1133 25.9373C51.5925 25.0093 37.4869 25.0093 37.4869 25.0093C31.6064 24.9424 25.7274 25.2367 19.883 25.8904C18.9422 26.1514 18.0805 26.6409 17.3746 27.3152C16.6809 27.9826 16.1785 28.8057 15.916 29.7074C15.2855 33.104 14.9792 36.5528 15.0012 40.0073C14.9787 43.4587 15.2842 46.9063 15.916 50.3071C16.1729 51.2051 16.6734 52.0244 17.369 52.6862C18.0645 53.348 18.9306 53.826 19.883 54.0791C23.4506 55.0053 37.4869 55.0053 37.4869 55.0053C43.3748 55.0723 49.2613 54.778 55.1133 54.1241C56.054 53.8811 56.9173 53.4023 57.6217 52.7331C58.3153 52.0713 58.8084 51.2483 59.0559 50.3521C59.7028 46.9569 60.0174 43.5067 59.9951 40.0504C60.0438 36.5795 59.7296 33.113 59.0577 29.7074V29.7093ZM33.0025 46.4264V33.59L44.7384 40.0092L33.0025 46.4264Z" fill="#FF0000"/>
</svg>
