<svg width="80" height="80" viewBox="0 0 80 80" fill="none" xmlns="http://www.w3.org/2000/svg">
<path d="M59.3463 3.68366L59.3991 3.68147L59.4516 3.67556C65.5215 2.99298 70.6647 4.34165 74.0403 6.96314C77.3613 9.54208 79.092 13.4321 78.3166 18.2606L70.5268 62.3763L70.5143 62.4469L70.5087 62.5184C69.8402 70.9377 61.0309 76.5007 52.0795 75.9328L13.9628 71.2506L13.9582 71.2501C6.68602 70.3795 1.87129 63.9758 1.50105 58.1635L2.40817 18.5446L2.40857 18.5274V18.5103C2.40857 14.6909 3.8116 11.4569 6.21886 9.17284C8.63 6.88512 12.1431 5.46296 16.5057 5.46296H16.5368L16.568 5.46167L59.3463 3.68366Z" fill="white" stroke="#0068FF" stroke-width="3"/>
<path d="M39.225 35.205V34.08H42.5925V49.885H40.6675C40.2865 49.8857 39.9207 49.7353 39.6503 49.4668C39.3799 49.1983 39.227 48.8335 39.225 48.4525V48.455C37.8194 49.484 36.122 50.0375 34.38 50.035C32.2034 50.035 30.1159 49.1707 28.5764 47.6321C27.0369 46.0935 26.1713 44.0066 26.17 41.83C26.1713 39.6534 27.0369 37.5665 28.5764 36.0279C30.1159 34.4893 32.2034 33.625 34.38 33.625C36.1212 33.623 37.8176 34.1765 39.2225 35.205H39.225ZM25.2975 29V29.5125C25.2975 30.4675 25.17 31.2475 24.5475 32.1625L24.4725 32.2475C24.2651 32.4801 24.0634 32.7176 23.8675 32.96L13.06 46.525H25.2975V48.445C25.2975 48.6343 25.2602 48.8218 25.1876 48.9966C25.1151 49.1715 25.0088 49.3304 24.8748 49.4641C24.7409 49.5979 24.5818 49.7039 24.4068 49.7761C24.2318 49.8483 24.0443 49.8853 23.855 49.885H8V48.98C8 47.8725 8.275 47.3775 8.625 46.8625L20.1425 32.6H8.48V29H25.3H25.2975ZM46.675 49.885C46.3567 49.885 46.0515 49.7586 45.8265 49.5335C45.6014 49.3085 45.475 49.0033 45.475 48.685V29H49.0775V49.885H46.675ZM59.7325 33.525C60.8179 33.5247 61.8927 33.7381 62.8956 34.1532C63.8984 34.5682 64.8098 35.1767 65.5775 35.944C66.3452 36.7112 66.9543 37.6222 67.3699 38.6248C67.7856 39.6274 67.9997 40.7021 68 41.7875C68.0003 42.8729 67.7869 43.9477 67.3718 44.9506C66.9568 45.9534 66.3482 46.8648 65.581 47.6325C64.8138 48.4002 63.9028 49.0092 62.9002 49.4249C61.8976 49.8406 60.8229 50.0547 59.7375 50.055C57.5455 50.0557 55.443 49.1855 53.8925 47.636C52.3421 46.0865 51.4707 43.9845 51.47 41.7925C51.4693 39.6005 52.3395 37.498 53.889 35.9475C55.4385 34.3971 57.5405 33.5257 59.7325 33.525ZM34.3825 46.6575C35.0259 46.6721 35.6657 46.5581 36.2643 46.322C36.863 46.0859 37.4084 45.7325 37.8686 45.2827C38.3288 44.8329 38.6945 44.2956 38.9441 43.7025C39.1938 43.1093 39.3224 42.4723 39.3224 41.8287C39.3224 41.1852 39.1938 40.5482 38.9441 39.955C38.6945 39.3619 38.3288 38.8246 37.8686 38.3748C37.4084 37.925 36.863 37.5716 36.2643 37.3355C35.6657 37.0994 35.0259 36.9854 34.3825 37C33.1209 37.0287 31.9206 37.5501 31.0384 38.4525C30.1563 39.3549 29.6624 40.5668 29.6624 41.8287C29.6624 43.0907 30.1563 44.3026 31.0384 45.205C31.9206 46.1074 33.1209 46.6288 34.3825 46.6575ZM59.7325 46.65C61.0221 46.65 62.2589 46.1377 63.1708 45.2258C64.0827 44.3139 64.595 43.0771 64.595 41.7875C64.595 40.4979 64.0827 39.2611 63.1708 38.3492C62.2589 37.4373 61.0221 36.925 59.7325 36.925C58.4429 36.925 57.2061 37.4373 56.2942 38.3492C55.3823 39.2611 54.87 40.4979 54.87 41.7875C54.87 43.0771 55.3823 44.3139 56.2942 45.2258C57.2061 46.1377 58.4429 46.65 59.7325 46.65Z" fill="#0068FF"/>
</svg>
